<svg width="21" height="21" viewBox="0 0 21 21" fill="none" xmlns="http://www.w3.org/2000/svg">
<g clip-path="url(#clip0_171_707)">
<path d="M8.92311 15.3125C8.92411 14.1981 9.22328 13.1086 9.78346 12.1793C10.3436 11.25 11.1401 10.5219 12.074 10.0853C13.008 9.64869 14.0381 9.52291 15.0366 9.72358C16.035 9.92425 16.9578 10.4425 17.6902 11.214V0H4.14104C3.50689 0 2.89873 0.276562 2.45032 0.768845C2.00191 1.26113 1.75 1.92881 1.75 2.625V18.375C1.75 19.0712 2.00191 19.7389 2.45032 20.2312C2.89873 20.7234 3.50689 21 4.14104 21H14.1037C12.7297 21 11.412 20.4008 10.4405 19.3342C9.46892 18.2676 8.92311 16.8209 8.92311 15.3125ZM5.73506 4.375H13.7052V6.125H5.73506V4.375ZM18.123 20.9624L16.0054 18.6375C15.4372 19.0356 14.7777 19.248 14.1037 19.25C13.3943 19.25 12.7009 19.0191 12.1111 18.5864C11.5213 18.1538 11.0616 17.5388 10.7901 16.8193C10.5187 16.0998 10.4477 15.3081 10.5861 14.5443C10.7244 13.7805 11.066 13.0789 11.5676 12.5283C12.0692 11.9776 12.7083 11.6026 13.404 11.4507C14.0997 11.2987 14.8208 11.3767 15.4762 11.6747C16.1316 11.9727 16.6917 12.4774 17.0858 13.1249C17.4799 13.7725 17.6902 14.5337 17.6902 15.3125C17.6884 16.0524 17.4949 16.7765 17.1323 17.4002L19.25 19.7251L18.123 20.9624Z" fill="#E89F5D"/>
</g>
<defs>
<clipPath id="clip0_171_707">
<rect width="21" height="21" fill="white"/>
</clipPath>
</defs>
</svg>
