<svg width="21" height="21" viewBox="0 0 21 21" fill="none" xmlns="http://www.w3.org/2000/svg">
<g clip-path="url(#clip0_171_736)">
<path d="M18.7372 4.375H14.875V0.51275L18.7372 4.375ZM19.25 6.125V21H1.75V2.625C1.75 1.92881 2.02656 1.26113 2.51884 0.768845C3.01113 0.276562 3.67881 0 4.375 0L13.125 0V6.125H19.25ZM14.5346 11.844L13.3 10.6067L10.1587 13.7436C9.99232 13.9028 9.77088 13.9917 9.54056 13.9917C9.31024 13.9917 9.0888 13.9028 8.92237 13.7436L7.53463 12.3567L6.3 13.594L7.68687 14.9809C7.93063 15.2247 8.22003 15.4181 8.53854 15.55C8.85705 15.682 9.19843 15.7499 9.54319 15.7499C9.88795 15.7499 10.2293 15.682 10.5478 15.55C10.8663 15.4181 11.1557 15.2247 11.3995 14.9809L14.5346 11.844Z" fill="#4BB85C"/>
</g>
<defs>
<clipPath id="clip0_171_736">
<rect width="21" height="21" fill="white"/>
</clipPath>
</defs>
</svg>
