<svg width="40" height="40" viewBox="0 0 40 40" fill="none" xmlns="http://www.w3.org/2000/svg">
<g clip-path="url(#clip0_12_147)">
<path d="M31.6667 4.99999H20.7867C20.5289 5.00169 20.2741 4.9447 20.0417 4.83332L14.7817 2.19332C14.0873 1.84757 13.3223 1.6673 12.5467 1.66666H8.33333C6.12401 1.6693 4.00593 2.54813 2.4437 4.11036C0.88147 5.67259 0.00264643 7.79067 0 9.99999L0 30C0.00264643 32.2093 0.88147 34.3274 2.4437 35.8896C4.00593 37.4519 6.12401 38.3307 8.33333 38.3333H31.6667C33.876 38.3307 35.9941 37.4519 37.5563 35.8896C39.1185 34.3274 39.9974 32.2093 40 30V13.3333C39.9974 11.124 39.1185 9.00592 37.5563 7.44369C35.9941 5.88146 33.876 5.00264 31.6667 4.99999ZM8.33333 4.99999H12.5467C12.8044 4.99829 13.0592 5.05528 13.2917 5.16666L18.5517 7.79832C19.2453 8.14697 20.0103 8.33009 20.7867 8.33332H31.6667C32.6634 8.33495 33.6369 8.63444 34.4622 9.19334C35.2875 9.75225 35.9269 10.5451 36.2983 11.47L3.33333 11.6567V9.99999C3.33333 8.67391 3.86012 7.40214 4.7978 6.46446C5.73548 5.52677 7.00725 4.99999 8.33333 4.99999ZM31.6667 35H8.33333C7.00725 35 5.73548 34.4732 4.7978 33.5355C3.86012 32.5978 3.33333 31.3261 3.33333 30V14.99L36.6667 14.8017V30C36.6667 31.3261 36.1399 32.5978 35.2022 33.5355C34.2645 34.4732 32.9927 35 31.6667 35Z" fill="#3273AE"/>
</g>
<defs>
<clipPath id="clip0_12_147">
<rect width="40" height="40" fill="white"/>
</clipPath>
</defs>
</svg>
