<svg width="20" height="17" viewBox="0 0 20 17" fill="none" xmlns="http://www.w3.org/2000/svg">
<g clip-path="url(#clip0_367_733)">
<path d="M19.325 7.91987C18.6299 6.55987 15.9042 2.125 9.9667 2.125C4.0292 2.125 1.30349 6.55987 0.608403 7.91987C0.515096 8.10213 0.466797 8.30024 0.466797 8.50071C0.466797 8.70118 0.515096 8.89929 0.608403 9.08154C1.30349 10.4401 4.0292 14.875 9.9667 14.875C15.9042 14.875 18.6299 10.4401 19.325 9.08012C19.4181 8.89807 19.4663 8.70021 19.4663 8.5C19.4663 8.29979 19.4181 8.10193 19.325 7.91987ZM9.9667 12.75C9.02723 12.75 8.10887 12.5007 7.32774 12.0337C6.5466 11.5667 5.93778 10.903 5.57827 10.1264C5.21875 9.34982 5.12469 8.49529 5.30797 7.67087C5.49125 6.84645 5.94364 6.08917 6.60794 5.4948C7.27224 4.90042 8.11861 4.49565 9.04002 4.33166C9.96143 4.16768 10.9165 4.25184 11.7844 4.57351C12.6524 4.89518 13.3942 5.43992 13.9162 6.13883C14.4381 6.83774 14.7167 7.65943 14.7167 8.5C14.7154 9.62682 14.2146 10.7072 13.3241 11.504C12.4335 12.3007 11.2261 12.7489 9.9667 12.75Z" fill="#666666"/>
<path d="M9.96745 11.3333C11.7163 11.3333 13.1341 10.0648 13.1341 8.50001C13.1341 6.9352 11.7163 5.66667 9.96745 5.66667C8.21855 5.66667 6.80078 6.9352 6.80078 8.50001C6.80078 10.0648 8.21855 11.3333 9.96745 11.3333Z" fill="#666666"/>
</g>
<defs>
<clipPath id="clip0_367_733">
<rect width="19" height="17" fill="white" transform="translate(0.466797)"/>
</clipPath>
</defs>
</svg>
