<svg width="34" height="36" viewBox="0 0 34 36" fill="none" xmlns="http://www.w3.org/2000/svg">
<g clip-path="url(#clip0_88_304)">
<path d="M31 6.2175L25.3439 0H14.0909C12.9698 0 11.8945 0.474106 11.1018 1.31802C10.309 2.16193 9.86363 3.30653 9.86363 4.5V6H7.04545C5.92431 6 4.84908 6.47411 4.05632 7.31802C3.26355 8.16193 2.81818 9.30653 2.81818 10.5V36H25.3636V28.5H31V6.2175ZM22.5454 33H5.63636V10.5C5.63636 10.1022 5.78482 9.72064 6.04907 9.43934C6.31333 9.15804 6.67173 9 7.04545 9H9.86363V28.5H22.5454V33ZM12.6818 25.5V4.5C12.6818 4.10218 12.8303 3.72064 13.0945 3.43934C13.3588 3.15804 13.7172 3 14.0909 3H22.5454V9H28.1818V25.5H12.6818Z" fill="white"/>
</g>
<defs>
<clipPath id="clip0_88_304">
<rect width="33.8182" height="36" fill="white"/>
</clipPath>
</defs>
</svg>
