<svg width="36" height="36" viewBox="0 0 36 36" fill="none" xmlns="http://www.w3.org/2000/svg">
<g clip-path="url(#clip0_211_28)">
<path d="M17.922 36.0135L17.391 35.778C16.8 35.5185 3 29.286 3 18V8.214C3.00053 7.27226 3.29818 6.35469 3.85056 5.59196C4.40294 4.82924 5.1819 4.26024 6.0765 3.966L18 0.013504L29.9235 3.966C30.8181 4.26024 31.5971 4.82924 32.1494 5.59196C32.7018 6.35469 32.9995 7.27226 33 8.214V18C33 30.8655 19.068 35.6325 18.474 35.8305L17.922 36.0135ZM18 3.159L7.026 6.798C6.72742 6.89553 6.46736 7.08504 6.28306 7.33939C6.09876 7.59375 5.99968 7.8999 6 8.214V18C6 26.241 15.66 31.587 18.0705 32.7915C20.4765 31.824 30 27.3945 30 18V8.214C30.0003 7.8999 29.9012 7.59375 29.7169 7.33939C29.5326 7.08504 29.2726 6.89553 28.974 6.798L18 3.159Z" fill="white"/>
<path d="M16.6665 21.813H16.617C16.2373 21.8072 15.8628 21.7244 15.516 21.5697C15.1693 21.415 14.8575 21.1916 14.5995 20.913L11.1405 17.313L13.302 15.24L16.668 18.75L24.4395 10.9785L26.5605 13.0995L18.669 20.991C18.4062 21.2536 18.0938 21.4615 17.7501 21.6026C17.4064 21.7437 17.0381 21.8152 16.6665 21.813Z" fill="white"/>
</g>
<defs>
<clipPath id="clip0_211_28">
<rect width="36" height="36" fill="white"/>
</clipPath>
</defs>
</svg>
