<svg width="35" height="36" viewBox="0 0 35 36" fill="none" xmlns="http://www.w3.org/2000/svg">
<path d="M17.5 36C14.0388 36 10.6554 34.9443 7.77753 32.9665C4.89967 30.9886 2.65665 28.1774 1.33212 24.8883C0.0075825 21.5992 -0.338976 17.98 0.336265 14.4884C1.01151 10.9967 2.67822 7.78943 5.12564 5.27208C7.57306 2.75474 10.6913 1.04041 14.0859 0.345873C17.4806 -0.348661 20.9993 0.00779915 24.197 1.37018C27.3947 2.73255 30.1278 5.03966 32.0507 7.99974C33.9736 10.9598 35 14.4399 35 18C34.995 22.7723 33.1496 27.3477 29.8688 30.7222C26.588 34.0968 22.1398 35.9948 17.5 36V36ZM17.5 3.00001C14.6157 3.00001 11.7962 3.87974 9.39794 5.52796C6.99972 7.17618 5.13054 9.51886 4.02676 12.2598C2.92299 15.0006 2.63419 18.0166 3.19689 20.9264C3.75959 23.8361 5.14852 26.5088 7.18803 28.6066C9.22755 30.7044 11.826 32.133 14.6549 32.7118C17.4838 33.2906 20.416 32.9935 23.0808 31.8582C25.7456 30.7229 28.0232 28.8003 29.6256 26.3336C31.228 23.8668 32.0833 20.9667 32.0833 18C32.0791 14.0231 30.5413 10.2103 27.8073 7.39823C25.0733 4.58613 21.3664 3.00437 17.5 3.00001V3.00001Z" fill="white"/>
<path d="M18.9583 22.5H16.0416V21.3855C16.0201 20.3271 16.2743 19.2821 16.778 18.3589C17.2816 17.4358 18.0163 16.6681 18.9058 16.1355C19.4446 15.8303 19.8758 15.3576 20.1377 14.7851C20.3996 14.2126 20.4789 13.5696 20.3641 12.948C20.2505 12.3558 19.9678 11.8119 19.5522 11.3857C19.1366 10.9596 18.6069 10.6705 18.0308 10.5555C17.6104 10.4755 17.178 10.4915 16.7643 10.6024C16.3506 10.7133 15.9656 10.9164 15.6367 11.1974C15.3077 11.4783 15.0429 11.8302 14.8609 12.2281C14.6788 12.626 14.5841 13.0602 14.5833 13.5H11.6666C11.667 12.4418 11.9395 11.4025 12.4564 10.4875C12.9733 9.57252 13.7163 8.81446 14.61 8.29019C15.5038 7.76592 16.5164 7.49411 17.5452 7.50232C18.574 7.51052 19.5824 7.79846 20.4681 8.33692C21.3538 8.87539 22.0853 9.64521 22.5884 10.5683C23.0915 11.4914 23.3482 12.535 23.3326 13.5931C23.317 14.6512 23.0296 15.6863 22.4996 16.5932C21.9695 17.5002 21.2157 18.2469 20.3145 18.7575C19.884 19.0344 19.5319 19.4231 19.2938 19.8844C19.0557 20.3458 18.94 20.8635 18.9583 21.3855V22.5Z" fill="white"/>
<path d="M18.9583 25.5H16.0416V28.5H18.9583V25.5Z" fill="white"/>
</svg>
