<svg width="20" height="20" viewBox="0 0 20 20" fill="none" xmlns="http://www.w3.org/2000/svg">
<g clip-path="url(#clip0_18_975)">
<path d="M15.29 6.025C14.1975 3.39917 11.6275 1.66667 8.75 1.66667C4.84417 1.66667 1.66667 4.84417 1.66667 8.75C1.66667 9.20917 1.71083 9.66417 1.7975 10.1108C0.675 10.9708 0 12.3158 0 13.75C0 16.2767 1.86917 18.3333 4.16667 18.3333H13.75C17.1967 18.3333 20 15.53 20 12.0833C20 9.19417 18.0467 6.72 15.29 6.025ZM13.75 16.6667H4.16667C2.78833 16.6667 1.66667 15.3583 1.66667 13.75C1.66667 12.6992 2.23667 11.725 3.15333 11.2075L3.72667 10.8833L3.54417 10.25C3.40417 9.765 3.33333 9.26 3.33333 8.74917C3.33333 5.7625 5.76333 3.3325 8.75 3.3325C11.075 3.3325 13.1383 4.81083 13.8817 7.01167L14.04 7.48167L14.53 7.56583C16.7342 7.94417 18.3325 9.84333 18.3325 12.0825C18.3325 14.6092 16.2758 16.6658 13.7492 16.6658L13.75 16.6667ZM11.1783 7.98833L13.9225 10.7325L12.7442 11.9108L10.8333 10V15H9.16667V10L7.25583 11.9108L6.0775 10.7325L8.82167 7.98833C9.47083 7.33917 10.5292 7.33917 11.1783 7.98833Z" fill="#3273AE"/>
</g>
<defs>
<clipPath id="clip0_18_975">
<rect width="20" height="20" fill="white"/>
</clipPath>
</defs>
</svg>
